<?xml version="1.0" encoding="utf-8"?>
<!-- Generator: Adobe Illustrator 24.1.1, SVG Export Plug-In . SVG Version: 6.00 Build 0)  -->
<svg version="1.1" id="Layer_1" xmlns="http://www.w3.org/2000/svg" xmlns:xlink="http://www.w3.org/1999/xlink" x="0px" y="0px"
	 viewBox="0 0 141.18 153.71" style="enable-background:new 0 0 141.18 153.71;" xml:space="preserve">
<style type="text/css">
	.st0{fill:#D6D6D6;}
	.st1{fill:none;stroke:#26D5EA;stroke-width:1.6628;stroke-miterlimit:10;}
	.st2{fill:#F7F7F7;}
	.st3{fill:#FFEA00;}
	.st4{fill:none;stroke:#F7F7F7;stroke-width:2;stroke-linecap:round;stroke-linejoin:round;stroke-miterlimit:10;}
	.st5{fill:#26D5EA;}
	.st6{fill:none;stroke:#FFEA00;stroke-width:2;stroke-linecap:round;stroke-linejoin:round;stroke-miterlimit:10;}
	.st7{fill:none;stroke:#26D5EA;stroke-width:2.3747;stroke-miterlimit:10;}
	.st8{fill:none;stroke:#F7F7F7;stroke-width:1.6547;stroke-linecap:round;stroke-linejoin:round;stroke-miterlimit:10;}
	.st9{fill:none;stroke:#26D5EA;stroke-width:1.6547;stroke-linecap:round;stroke-linejoin:round;stroke-miterlimit:10;}
	.st10{fill:none;stroke:#FFFFFF;stroke-miterlimit:10;}
</style>
<path id="XMLID_225_" class="st5" d="M12.32,71.17c-1.84,1.99-4.95,2.12-6.94,0.28C3.38,69.6,3.26,66.5,5.1,64.5
	c1.84-1.99,4.95-2.12,6.94-0.28C14.03,66.07,14.16,69.17,12.32,71.17z"/>
<path id="XMLID_362_" class="st5" d="M75.6,129.6c-1.84,1.99-4.95,2.12-6.94,0.28c-1.99-1.84-2.12-4.95-0.28-6.94
	c1.84-1.99,4.95-2.12,6.94-0.28C77.32,124.5,77.44,127.6,75.6,129.6z"/>
<path id="XMLID_363_" class="st2" d="M96.7,149.07c-1.84,1.99-4.95,2.12-6.94,0.28c-1.99-1.84-2.12-4.95-0.28-6.94
	c1.84-1.99,4.95-2.12,6.94-0.28C98.41,143.97,98.54,147.08,96.7,149.07z"/>
<g id="XMLID_365_">
	<path id="XMLID_369_" class="st5" d="M51.1,71.49c-1.84,1.99-4.95,2.12-6.94,0.28c-1.99-1.84-2.12-4.95-0.28-6.94
		c1.84-1.99,4.95-2.12,6.94-0.28C52.81,66.39,52.94,69.5,51.1,71.49z"/>
	<path id="XMLID_368_" class="st5" d="M72.19,90.97c-1.84,1.99-4.95,2.12-6.94,0.28c-1.99-1.84-2.12-4.95-0.28-6.94
		c1.84-1.99,4.95-2.12,6.94-0.28C73.91,85.87,74.03,88.98,72.19,90.97z"/>
</g>
<path id="XMLID_376_" class="st5" d="M47.68,32.86c-1.84,1.99-4.95,2.12-6.94,0.28c-1.99-1.84-2.12-4.95-0.28-6.94
	c1.84-1.99,4.95-2.12,6.94-0.28C49.4,27.76,49.52,30.87,47.68,32.86z"/>
<path id="XMLID_375_" class="st2" d="M68.78,52.34c-1.84,1.99-4.95,2.12-6.94,0.28c-1.99-1.84-2.12-4.95-0.28-6.94
	c1.84-1.99,4.95-2.12,6.94-0.28C70.49,47.24,70.62,50.35,68.78,52.34z"/>
<path id="XMLID_374_" class="st5" d="M89.87,71.82c-1.84,1.99-4.95,2.12-6.94,0.28c-1.99-1.84-2.12-4.95-0.28-6.94
	c1.84-1.99,4.95-2.12,6.94-0.28C91.59,66.72,91.71,69.82,89.87,71.82z"/>
<path id="XMLID_373_" class="st5" d="M110.97,91.29c-1.84,1.99-4.95,2.12-6.94,0.28c-1.99-1.84-2.12-4.95-0.28-6.94
	c1.84-1.99,4.95-2.12,6.94-0.28C112.68,86.19,112.81,89.3,110.97,91.29z"/>
<path id="XMLID_372_" class="st5" d="M132.06,110.77c-1.84,1.99-4.95,2.12-6.94,0.28c-1.99-1.84-2.12-4.95-0.28-6.94
	c1.84-1.99,4.95-2.12,6.94-0.28C133.78,105.67,133.9,108.78,132.06,110.77z"/>
<path id="XMLID_382_" class="st2" d="M65.37,13.71c-1.84,1.99-4.95,2.12-6.94,0.28c-1.99-1.84-2.12-4.95-0.28-6.94
	c1.84-1.99,4.95-2.12,6.94-0.28C67.08,8.61,67.21,11.72,65.37,13.71z"/>
<path id="XMLID_380_" class="st5" d="M107.56,52.66c-1.84,1.99-4.95,2.12-6.94,0.28c-1.99-1.84-2.12-4.95-0.28-6.94
	c1.84-1.99,4.95-2.12,6.94-0.28C109.27,47.56,109.4,50.67,107.56,52.66z"/>
<path id="XMLID_379_" class="st2" d="M128.65,72.14c-1.84,1.99-4.95,2.12-6.94,0.28c-1.99-1.84-2.12-4.95-0.28-6.94
	c1.84-1.99,4.95-2.12,6.94-0.28C130.37,67.04,130.49,70.15,128.65,72.14z"/>
</svg>
