<?xml version="1.0" encoding="utf-8"?>
<!-- Generator: Adobe Illustrator 24.1.1, SVG Export Plug-In . SVG Version: 6.00 Build 0)  -->
<svg version="1.1" id="Layer_1" xmlns="http://www.w3.org/2000/svg" xmlns:xlink="http://www.w3.org/1999/xlink" x="0px" y="0px"
	 viewBox="0 0 85.3 84.71" style="enable-background:new 0 0 85.3 84.71;" xml:space="preserve">
<style type="text/css">
	.st0{fill:#D6D6D6;}
	.st1{fill:none;stroke:#26D5EA;stroke-width:1.6628;stroke-miterlimit:10;}
	.st2{fill:#F7F7F7;}
	.st3{fill:#FFEA00;}
	.st4{fill:none;stroke:#F7F7F7;stroke-width:2;stroke-linecap:round;stroke-linejoin:round;stroke-miterlimit:10;}
	.st5{fill:#26D5EA;}
	.st6{fill:none;stroke:#FFEA00;stroke-width:2;stroke-linecap:round;stroke-linejoin:round;stroke-miterlimit:10;}
	.st7{fill:none;stroke:#26D5EA;stroke-width:2.3747;stroke-miterlimit:10;}
	.st8{fill:none;stroke:#F7F7F7;stroke-width:1.6547;stroke-linecap:round;stroke-linejoin:round;stroke-miterlimit:10;}
	.st9{fill:none;stroke:#26D5EA;stroke-width:1.6547;stroke-linecap:round;stroke-linejoin:round;stroke-miterlimit:10;}
	.st10{fill:none;stroke:#FFFFFF;stroke-miterlimit:10;}
</style>
<g id="XMLID_117_">
	<path id="XMLID_119_" class="st1" d="M80.75,43.15L43.85,80.05c-0.38,0.38-1,0.38-1.38,0L5.58,43.15c-0.38-0.38-0.38-1,0-1.38
		L42.47,4.88c0.38-0.38,1-0.38,1.38,0l36.89,36.89C81.13,42.15,81.13,42.77,80.75,43.15z"/>
	<path id="XMLID_118_" class="st2" d="M62.93,44.58L45.28,62.23c-1.17,1.17-3.06,1.17-4.23,0L23.39,44.58
		c-1.17-1.17-1.17-3.06,0-4.23l17.65-17.65c1.17-1.17,3.06-1.17,4.23,0l17.65,17.65C64.1,41.52,64.1,43.41,62.93,44.58z"/>
</g>
</svg>
